<?xml version="1.0" standalone="no"?>
<!DOCTYPE svg PUBLIC "-//W3C//DTD SVG 20010904//EN" "http://www.w3.org/TR/2001/REC-SVG-20010904/DTD/svg10.dtd">
<!-- Created using Krita: https://krita.org -->
<svg xmlns="http://www.w3.org/2000/svg" 
    xmlns:xlink="http://www.w3.org/1999/xlink"
    xmlns:krita="http://krita.org/namespaces/svg/krita"
    xmlns:sodipodi="http://sodipodi.sourceforge.net/DTD/sodipodi-0.dtd"
    width="120.24pt"
    height="120.24pt"
    viewBox="0 0 120.24 120.24">
<defs/>
<rect id="shape1" transform="matrix(0.580773055587285 -0.814065435743159 0.814065435743159 0.580773055587285 76.0224021360074 91.1735293322514)" fill="#ffffff" fill-rule="evenodd" stroke="#000000" stroke-opacity="0" stroke-width="0" stroke-linecap="square" stroke-linejoin="bevel" width="11.7666266218408" height="11.5285488696504" rx="5.88331331092039" ry="5.76427443482518"/><g id="group0" transform="translate(18.0019802626233, 30.1110001142345)" fill="none">
  <rect id="shape11" transform="matrix(0.317235355404074 -0.948346858915252 0.948346858915252 0.317235355404074 -3.5527136788005e-15 27.6379276609562)" fill="#ffffff" fill-rule="evenodd" stroke="#000000" stroke-opacity="0" stroke-width="0" stroke-linecap="square" stroke-linejoin="bevel" width="10.3846173971834" height="37.1655324191649" rx="2.77308201356687" ry="2.77308201356687"/>
  <rect id="shape0" transform="matrix(0.176372175237399 0.98432351325774 -0.98432351325774 0.176372175237399 59.0436165247278 26.2773842221351)" fill="#ffffff" fill-rule="evenodd" stroke="#000000" stroke-opacity="0" stroke-width="0" stroke-linecap="square" stroke-linejoin="bevel" width="9.43150384715207" height="20.7137886737121" rx="3.08275507128695" ry="1.55556888774151"/>
  <rect id="shape12" transform="matrix(0.580773080990118 -0.814065471350129 0.814065471350129 0.580773080990118 4.32881297881131 12.5916209888047)" fill="#ffffff" fill-rule="evenodd" stroke="#000000" stroke-opacity="0" stroke-width="0" stroke-linecap="square" stroke-linejoin="bevel" width="15.4675777710133" height="15.154617543252" rx="7.73378888550665" ry="7.57730877162602"/>
  <rect id="shape13" transform="matrix(0.334506545568996 -0.942393407351069 0.942393407351069 0.334506545568996 20.8902507366047 20.9230475567044)" fill="#ffffff" fill-rule="evenodd" stroke="#000000" stroke-opacity="0" stroke-width="0" stroke-linecap="square" stroke-linejoin="bevel" width="11.0726463996295" height="22.3916650170469" rx="3.62730752771325" ry="3.10646483297217"/>
  <rect id="shape14" transform="matrix(-0.170636563321619 -0.985333997913964 0.985333997913964 -0.170636563321619 47.5326663525364 26.2683555281578)" fill="#ffffff" fill-rule="evenodd" stroke="#000000" stroke-opacity="0" stroke-width="0" stroke-linecap="square" stroke-linejoin="bevel" width="8.11306679144658" height="13.8917255127868" rx="2.65777368691547" ry="1.9272419778485"/>
  <rect id="shape01" transform="matrix(-0.00310417042153012 0.999995126848097 -0.999995126848097 -0.00310417042153012 78.5695843937342 42.5449381015459)" fill="#ffffff" fill-rule="evenodd" stroke="#000000" stroke-opacity="0" stroke-width="0" stroke-linecap="square" stroke-linejoin="bevel" width="7.21218396439163" height="70.0166492259979" rx="2.66834930600685" ry="2.54462175415786"/>
  <rect id="shape15" transform="matrix(0.580773073897959 -0.8140654614091 0.8140654614091 0.580773073897959 10.8078929652388 60.6950869932354)" fill="#ffffff" fill-rule="evenodd" stroke="#000000" stroke-opacity="0" stroke-width="0" stroke-linecap="square" stroke-linejoin="bevel" width="11.7666266218408" height="11.5285488696504" rx="5.88331331092039" ry="5.76427443482518"/>
  <rect id="shape02" transform="matrix(-0.298247010377411 0.954488662095673 -0.954488662095673 -0.298247010377411 80.5598989243201 32.3105379469964)" fill="#ffffff" fill-rule="evenodd" stroke="#000000" stroke-opacity="0" stroke-width="0" stroke-linecap="square" stroke-linejoin="bevel" width="9.43150384715207" height="17.2374142605054" rx="3.08275507128695" ry="1.29449931884184"/>
  <rect id="shape16" transform="matrix(0.266473853270207 -0.963842071040147 0.963842071040147 0.266473853270207 56.4832656970933 23.4179671400298)" fill="#ffffff" fill-rule="evenodd" stroke="#000000" stroke-opacity="0" stroke-width="0" stroke-linecap="square" stroke-linejoin="bevel" width="8.11306679144658" height="13.8917255127868" rx="2.65777368691547" ry="1.9272419778485"/>
 </g>
</svg>
