<?xml version="1.0" standalone="no"?>
<!DOCTYPE svg PUBLIC "-//W3C//DTD SVG 20010904//EN" "http://www.w3.org/TR/2001/REC-SVG-20010904/DTD/svg10.dtd">
<!-- Created using Krita: https://krita.org -->
<svg xmlns="http://www.w3.org/2000/svg" 
    xmlns:xlink="http://www.w3.org/1999/xlink"
    xmlns:krita="http://krita.org/namespaces/svg/krita"
    xmlns:sodipodi="http://sodipodi.sourceforge.net/DTD/sodipodi-0.dtd"
    width="103.68pt"
    height="100.8pt"
    viewBox="0 0 103.68 100.8">
<defs/>
<g id="group0" transform="translate(5.38871018872104, 6.54063508944191)" fill="none">
  <rect id="shape0" transform="matrix(-0.00310417047330148 0.99999514352606 -0.99999514352606 -0.00310417047330148 30.3438190986182 0.0932532833826398)" fill="#8f9bbc" fill-rule="evenodd" stroke="#000000" stroke-opacity="0" stroke-width="0" stroke-linecap="square" stroke-linejoin="bevel" width="29.1149370489967" height="30.0412893507936" rx="5.37893534402349" ry="4.89908720460695"/>
  <rect id="shape01" transform="matrix(-0.00310417054378984 0.999995166233576 -0.999995166233576 -0.00310417054378984 67.1809177181575 0.539135580955312)" fill="#8f9bbc" fill-rule="evenodd" stroke="#000000" stroke-opacity="0" stroke-width="0" stroke-linecap="square" stroke-linejoin="bevel" width="29.1149370489967" height="30.0412893507936" rx="5.37893534402349" ry="4.89908720460695"/>
  <rect id="shape02" transform="matrix(-0.00310417054378987 0.999995166233582 -0.999995166233582 -0.00310417054378987 103.273542074933 0.539135580955221)" fill="#8f9bbc" fill-rule="evenodd" stroke="#000000" stroke-opacity="0" stroke-width="0" stroke-linecap="square" stroke-linejoin="bevel" width="29.1149370489967" height="30.0412893507936" rx="5.37893534402349" ry="4.89908720460695"/>
  <rect id="shape03" transform="matrix(-0.0031041704000701 0.999995119934887 -0.999995119934887 -0.0031041704000701 30.3377640408859 35.8513743702981)" fill="#8f9bbc" fill-rule="evenodd" stroke="#000000" stroke-opacity="0" stroke-width="0" stroke-linecap="square" stroke-linejoin="bevel" width="29.1149370489967" height="30.0412893507936" rx="5.37893534402349" ry="4.89908720460695"/>
  <rect id="shape01" transform="matrix(-0.00310417047055841 0.999995142642401 -0.999995142642401 -0.00310417047055841 67.1748617913906 36.2972566573519)" fill="#8f9bbc" fill-rule="evenodd" stroke="#000000" stroke-opacity="0" stroke-width="0" stroke-linecap="square" stroke-linejoin="bevel" width="29.1149370489967" height="30.0412893507936" rx="5.37893534402349" ry="4.89908720460695"/>
  <rect id="shape02" transform="matrix(-0.00310417047055844 0.999995142642408 -0.999995142642408 -0.00310417047055844 103.267485296695 36.2972566573518)" fill="#8f9bbc" fill-rule="evenodd" stroke="#000000" stroke-opacity="0" stroke-width="0" stroke-linecap="square" stroke-linejoin="bevel" width="29.1149370489967" height="30.0412893507936" rx="5.37893534402349" ry="4.89908720460695"/>
  <rect id="shape04" transform="matrix(-0.0031041704000701 0.999995119934887 -0.999995119934887 -0.0031041704000701 30.1315204731329 71.1190244560614)" fill="#8f9bbc" fill-rule="evenodd" stroke="#000000" stroke-opacity="0" stroke-width="0" stroke-linecap="square" stroke-linejoin="bevel" width="29.1149370489967" height="30.0412893507936" rx="5.37893534402349" ry="4.89908720460695"/>
  <rect id="shape011" transform="matrix(-0.00310417047055841 0.999995142642401 -0.999995142642401 -0.00310417047055841 66.9686182236376 71.5649067431152)" fill="#8f9bbc" fill-rule="evenodd" stroke="#000000" stroke-opacity="0" stroke-width="0" stroke-linecap="square" stroke-linejoin="bevel" width="29.1149370489967" height="30.0412893507936" rx="5.37893534402349" ry="4.89908720460695"/>
  <rect id="shape021" transform="matrix(-0.00310417047055844 0.999995142642408 -0.999995142642408 -0.00310417047055844 103.061241728942 71.5649067431151)" fill="#8f9bbc" fill-rule="evenodd" stroke="#000000" stroke-opacity="0" stroke-width="0" stroke-linecap="square" stroke-linejoin="bevel" width="29.1149370489967" height="30.0412893507936" rx="5.37893534402349" ry="4.89908720460695"/>
 </g>
</svg>
