<?xml version="1.0" standalone="no"?>
<!DOCTYPE svg PUBLIC "-//W3C//DTD SVG 20010904//EN" "http://www.w3.org/TR/2001/REC-SVG-20010904/DTD/svg10.dtd">
<!-- Created using Krita: https://krita.org -->
<svg xmlns="http://www.w3.org/2000/svg" 
    xmlns:xlink="http://www.w3.org/1999/xlink"
    xmlns:krita="http://krita.org/namespaces/svg/krita"
    xmlns:sodipodi="http://sodipodi.sourceforge.net/DTD/sodipodi-0.dtd"
    width="120.24pt"
    height="120.24pt"
    viewBox="0 0 120.24 120.24">
<defs/>
<g id="group0" transform="translate(18.7000684321236, 39.4710001142345)" fill="none">
  <rect id="shape1" transform="matrix(0.00796944827458334 -0.999968261209807 0.999968261209807 0.00796944827458334 3.5527136788005e-15 30.040071114597)" fill="#ffffff" fill-rule="evenodd" stroke="#000000" stroke-opacity="0" stroke-width="0" stroke-linecap="square" stroke-linejoin="bevel" width="9.54011974390461" height="37.1655324191649" rx="2.54756949218673" ry="2.77308201356687"/>
  <rect id="shape0" transform="matrix(-0.00310417047330148 0.99999514352606 -0.99999514352606 -0.00310417047330148 79.8394489945584 20.7560879316123)" fill="#ffffff" fill-rule="evenodd" stroke="#000000" stroke-opacity="0" stroke-width="0" stroke-linecap="square" stroke-linejoin="bevel" width="9.43150384715207" height="41.0496362987579" rx="3.08275507128695" ry="3.08275507128695"/>
  <rect id="shape11" transform="matrix(0.580773080990118 -0.814065471350129 0.814065471350129 0.580773080990118 0.570724809311102 12.5916209888047)" fill="#ffffff" fill-rule="evenodd" stroke="#000000" stroke-opacity="0" stroke-width="0" stroke-linecap="square" stroke-linejoin="bevel" width="15.4675777710133" height="15.154617543252" rx="7.73378888550665" ry="7.57730877162602"/>
  <rect id="shape12" transform="matrix(-0.00527358005900916 -0.999986076203369 0.999986076203369 -0.00527358005900916 20.7084972852657 18.0260205616667)" fill="#ffffff" fill-rule="evenodd" stroke="#000000" stroke-opacity="0" stroke-width="0" stroke-linecap="square" stroke-linejoin="bevel" width="11.0726463996295" height="22.3916650170469" rx="3.62730752771325" ry="3.10646483297217"/>
  <rect id="shape13" transform="matrix(-0.0136589836665723 -0.999906673821379 0.999906673821379 -0.0136589836665723 45.3146401501252 17.9099753852299)" fill="#ffffff" fill-rule="evenodd" stroke="#000000" stroke-opacity="0" stroke-width="0" stroke-linecap="square" stroke-linejoin="bevel" width="8.11306679144658" height="22.3916650170469" rx="2.65777368691547" ry="3.10646483297217"/>
  <rect id="shape01" transform="matrix(-0.00310417042153012 0.999995126848097 -0.999995126848097 -0.00310417042153012 77.8714962242339 33.1849381015459)" fill="#ffffff" fill-rule="evenodd" stroke="#000000" stroke-opacity="0" stroke-width="0" stroke-linecap="square" stroke-linejoin="bevel" width="7.21218396439163" height="70.0166492259979" rx="2.66834930600685" ry="2.54462175415786"/>
  <rect id="shape14" transform="matrix(0.580773073897959 -0.8140654614091 0.8140654614091 0.580773073897959 10.1098047957386 51.3350869932354)" fill="#ffffff" fill-rule="evenodd" stroke="#000000" stroke-opacity="0" stroke-width="0" stroke-linecap="square" stroke-linejoin="bevel" width="11.7666266218408" height="11.5285488696504" rx="5.88331331092039" ry="5.76427443482518"/>
  <rect id="shape15" transform="matrix(0.580773055587285 -0.814065435743159 0.814065435743159 0.580773055587285 57.3223337038838 51.7025292180169)" fill="#ffffff" fill-rule="evenodd" stroke="#000000" stroke-opacity="0" stroke-width="0" stroke-linecap="square" stroke-linejoin="bevel" width="11.7666266218408" height="11.5285488696504" rx="5.88331331092039" ry="5.76427443482518"/>
 </g>
</svg>
