<?xml version="1.0" standalone="no"?>
<!DOCTYPE svg PUBLIC "-//W3C//DTD SVG 20010904//EN" "http://www.w3.org/TR/2001/REC-SVG-20010904/DTD/svg10.dtd">
<!-- Created using Krita: https://krita.org -->
<svg xmlns="http://www.w3.org/2000/svg" 
    xmlns:xlink="http://www.w3.org/1999/xlink"
    xmlns:krita="http://krita.org/namespaces/svg/krita"
    xmlns:sodipodi="http://sodipodi.sourceforge.net/DTD/sodipodi-0.dtd"
    width="120.24pt"
    height="120.24pt"
    viewBox="0 0 120.24 120.24">
<defs/>
<rect id="shape1" transform="matrix(0.580773065905524 -0.814065450206162 0.814065450206162 0.580773065905524 76.0224034866509 91.1735309520757)" fill="#ffffff" fill-rule="evenodd" stroke="#000000" stroke-opacity="0" stroke-width="0" stroke-linecap="square" stroke-linejoin="bevel" width="11.7666266218408" height="11.5285488696504" rx="5.88331331092039" ry="5.76427443482518"/><rect id="shape11" transform="matrix(0.948112594397179 -0.317934866617352 0.317934866617352 0.948112594397179 33.865838656743 29.1837489837946)" fill="#ffffff" fill-rule="evenodd" stroke="#000000" stroke-opacity="0" stroke-width="0" stroke-linecap="square" stroke-linejoin="bevel" width="10.3846173971834" height="37.1655324191649" rx="2.77308201356687" ry="2.77308201356687"/><rect id="shape0" transform="matrix(0.011934588485585 0.999928759502635 -0.999928759502635 0.011934588485585 91.5190438496176 60.7240121826884)" fill="#ffffff" fill-rule="evenodd" stroke="#000000" stroke-opacity="0" stroke-width="0" stroke-linecap="square" stroke-linejoin="bevel" width="9.43150384715207" height="35.9011962815035" rx="3.08275507128695" ry="2.69611633332357"/><rect id="shape12" transform="matrix(0.580773091308358 -0.814065485813132 0.814065485813132 0.580773091308358 44.2939228928911 30.3550358482443)" fill="#ffffff" fill-rule="evenodd" stroke="#000000" stroke-opacity="0" stroke-width="0" stroke-linecap="square" stroke-linejoin="bevel" width="15.4675777710133" height="15.154617543252" rx="7.73378888550665" ry="7.577308771626"/><rect id="shape13" transform="matrix(0.951198788093218 -0.308578781367153 0.308578781367153 0.951198788093218 51.4570658661616 39.8134096156134)" fill="#ffffff" fill-rule="evenodd" stroke="#000000" stroke-opacity="0" stroke-width="0" stroke-linecap="square" stroke-linejoin="bevel" width="11.0726463996295" height="20.9681934674114" rx="3.62730752771325" ry="2.90898222923044"/><rect id="shape14" transform="matrix(-0.01125390159263 -0.999936652703077 0.999936652703077 -0.01125390159263 69.6704863134157 58.4254597435825)" fill="#ffffff" fill-rule="evenodd" stroke="#000000" stroke-opacity="0" stroke-width="0" stroke-linecap="square" stroke-linejoin="bevel" width="8.11306679144658" height="16.9804360145104" rx="2.65777368691547" ry="2.35574832364866"/><rect id="shape01" transform="matrix(-0.00310417047668002 0.999995144614398 -0.999995144614398 -0.00310417047668002 96.5715663720854 72.655939506614)" fill="#ffffff" fill-rule="evenodd" stroke="#000000" stroke-opacity="0" stroke-width="0" stroke-linecap="square" stroke-linejoin="bevel" width="7.21218396439163" height="70.0166492259979" rx="2.66834930600685" ry="2.54462175415786"/><rect id="shape15" transform="matrix(0.580773084216199 -0.814065475872103 0.814065475872103 0.580773084216199 28.8098737397095 90.8060887207661)" fill="#ffffff" fill-rule="evenodd" stroke="#000000" stroke-opacity="0" stroke-width="0" stroke-linecap="square" stroke-linejoin="bevel" width="11.7666266218408" height="11.5285488696504" rx="5.88331331092039" ry="5.76427443482518"/>
</svg>
