<?xml version="1.0" standalone="no"?>
<!DOCTYPE svg PUBLIC "-//W3C//DTD SVG 20010904//EN" "http://www.w3.org/TR/2001/REC-SVG-20010904/DTD/svg10.dtd">
<!-- Created using Krita: https://krita.org -->
<svg xmlns="http://www.w3.org/2000/svg" 
    xmlns:xlink="http://www.w3.org/1999/xlink"
    xmlns:krita="http://krita.org/namespaces/svg/krita"
    xmlns:sodipodi="http://sodipodi.sourceforge.net/DTD/sodipodi-0.dtd"
    width="120.24pt"
    height="120.24pt"
    viewBox="0 0 120.24 120.24">
<defs/>
<rect id="shape1" transform="matrix(0.580773076223764 -0.814065464669165 0.814065464669165 0.580773076223764 76.0224048372944 91.1735325719)" fill="#ffffff" fill-rule="evenodd" stroke="#000000" stroke-opacity="0" stroke-width="0" stroke-linecap="square" stroke-linejoin="bevel" width="11.7666266218408" height="11.5285488696504" rx="5.88331331092039" ry="5.76427443482518"/><rect id="shape0" transform="matrix(0.0119345886976195 0.999928777267758 -0.999928777267758 0.0119345886976195 91.5190454755805 60.7240132615348)" fill="#ffffff" fill-rule="evenodd" stroke="#000000" stroke-opacity="0" stroke-width="0" stroke-linecap="square" stroke-linejoin="bevel" width="9.43150384715207" height="34.4451473966852" rx="3.08275507128695" ry="2.58676963775124"/><rect id="shape12" transform="matrix(0.580773101626598 -0.814065500276135 0.814065500276135 0.580773101626598 27.1114877336763 52.4119832910526)" fill="#ffffff" fill-rule="evenodd" stroke="#000000" stroke-opacity="0" stroke-width="0" stroke-linecap="square" stroke-linejoin="bevel" width="15.4675777710133" height="15.154617543252" rx="7.73378888550665" ry="7.577308771626"/><rect id="shape13" transform="matrix(0.0289305250246034 -0.999581441921895 0.999581441921895 0.0289305250246034 46.730887483807 57.8717762700987)" fill="#ffffff" fill-rule="evenodd" stroke="#000000" stroke-opacity="0" stroke-width="0" stroke-linecap="square" stroke-linejoin="bevel" width="11.0726463996295" height="20.9681934674114" rx="3.62730752771325" ry="2.90898222923044"/><rect id="shape14" transform="matrix(-0.0112539017925712 -0.999936670468337 0.999936670468337 -0.0112539017925712 69.4753588295179 58.6054607847898)" fill="#ffffff" fill-rule="evenodd" stroke="#000000" stroke-opacity="0" stroke-width="0" stroke-linecap="square" stroke-linejoin="bevel" width="8.11306679144658" height="16.9804360145104" rx="2.65777368691547" ry="2.35574832364866"/><rect id="shape01" transform="matrix(-0.00310417053182992 0.9999951623807 -0.9999951623807 -0.00310417053182992 96.5715680878133 72.6559407974476)" fill="#ffffff" fill-rule="evenodd" stroke="#000000" stroke-opacity="0" stroke-width="0" stroke-linecap="square" stroke-linejoin="bevel" width="7.21218396439163" height="70.0166492259979" rx="2.66834930600685" ry="2.54462175415786"/><rect id="shape15" transform="matrix(0.580773094534439 -0.814065490335106 0.814065490335106 0.580773094534439 28.8098742515569 90.8060903340623)" fill="#ffffff" fill-rule="evenodd" stroke="#000000" stroke-opacity="0" stroke-width="0" stroke-linecap="square" stroke-linejoin="bevel" width="11.7666266218408" height="11.5285488696504" rx="5.88331331092039" ry="5.76427443482518"/><rect id="shape01" transform="matrix(-0.00101877489783407 0.999999484317776 -0.999999484317776 -0.00101877489783407 55.4849785463265 60.8459672894752)" fill="#ffffff" fill-rule="evenodd" stroke="#000000" stroke-opacity="0" stroke-width="0" stroke-linecap="square" stroke-linejoin="bevel" width="9.43150384715207" height="26.8192483936164" rx="2.67738289680015" ry="2.67738289680015"/>
</svg>
